<svg id="visual" viewBox="0 0 1920 1080" width="1920" height="1080" xmlns="http://www.w3.org/2000/svg" xmlns:xlink="http://www.w3.org/1999/xlink" version="1.1"><g transform="translate(938.0980655393565 491.1501334638395)"><path d="M159 -212C208.3 -183.1 252 -139.6 310.2 -74C368.4 -8.4 441 79.2 433.1 152.3C425.3 225.3 336.9 283.8 251.4 336.5C165.8 389.1 82.9 436.1 12.8 418.4C-57.2 400.7 -114.4 318.5 -175.1 257.7C-235.8 196.9 -300 157.6 -341 95.7C-382 33.7 -399.8 -51 -384.4 -133.1C-369.1 -215.3 -320.6 -294.9 -251 -317.3C-181.4 -339.7 -90.7 -304.9 -17.9 -280.2C54.9 -255.5 109.7 -241 159 -212" fill="none" stroke="#4400ba" stroke-width="15"></path></g></svg>