<svg id="visual" viewBox="0 0 1920 1080" width="1920" height="1080" xmlns="http://www.w3.org/2000/svg" xmlns:xlink="http://www.w3.org/1999/xlink" version="1.1"><rect x="0" y="0" width="1920" height="1080" fill="#000000"></rect><defs><linearGradient id="grad1_0" x1="43.8%" y1="0%" x2="100%" y2="100%"><stop offset="14.444444444444446%" stop-color="#000000" stop-opacity="1"></stop><stop offset="85.55555555555554%" stop-color="#000000" stop-opacity="1"></stop></linearGradient></defs><defs><linearGradient id="grad2_0" x1="0%" y1="0%" x2="56.3%" y2="100%"><stop offset="14.444444444444446%" stop-color="#000000" stop-opacity="1"></stop><stop offset="85.55555555555554%" stop-color="#000000" stop-opacity="1"></stop></linearGradient></defs><g transform="translate(1920, 0)"><path d="M0 378C-29.6 361.4 -59.1 344.7 -90.6 338.1C-122 331.4 -155.4 334.8 -188.5 326.5C-221.6 318.2 -254.5 298.3 -267.3 267.3C-280 236.3 -272.6 194.2 -285.8 165C-299 135.8 -332.8 119.6 -351.6 94.2C-370.4 68.9 -374.2 34.4 -378 0L0 0Z" fill="#6400ff"></path></g><g transform="translate(0, 1080)"><path d="M0 -378C27.8 -352.7 55.6 -327.4 84.9 -316.8C114.2 -306.2 145.1 -310.3 176.5 -305.7C207.9 -301.1 239.7 -287.9 267.3 -267.3C294.8 -246.7 318.1 -218.7 323 -186.5C328 -154.3 314.6 -117.7 320.7 -85.9C326.8 -54.1 352.4 -27.1 378 0L0 0Z" fill="#6400ff"></path></g></svg>