<svg id="visual" viewBox="0 0 500 900" width="500" height="900" xmlns="http://www.w3.org/2000/svg" xmlns:xlink="http://www.w3.org/1999/xlink" version="1.1"><rect x="0" y="0" width="500" height="900" fill="#000000"></rect><defs><linearGradient id="grad1_0" x1="0%" y1="100%" x2="100%" y2="0%"><stop offset="30%" stop-color="#000000" stop-opacity="1"></stop><stop offset="70%" stop-color="#000000" stop-opacity="1"></stop></linearGradient></defs><defs><linearGradient id="grad2_0" x1="0%" y1="100%" x2="100%" y2="0%"><stop offset="30%" stop-color="#000000" stop-opacity="1"></stop><stop offset="70%" stop-color="#000000" stop-opacity="1"></stop></linearGradient></defs><g transform="translate(500, 900)"><path d="M-200 0C-200 -22.4 -200.1 -44.8 -190.2 -61.8C-180.3 -78.8 -160.5 -90.3 -148.1 -107.6C-135.6 -124.8 -130.5 -147.7 -116.4 -160.2C-102.3 -172.7 -79.3 -174.8 -58.4 -179.7C-37.5 -184.7 -18.8 -192.3 0 -200L0 0Z" fill="#005dff"></path></g><g transform="translate(0, 0)"><path d="M200 0C198.9 21.6 197.8 43.3 190.2 61.8C182.6 80.3 168.5 95.7 156.1 113.4C143.8 131.2 133.3 151.4 116.4 160.2C99.4 169 76.1 166.4 55.6 171.2C35.2 175.9 17.6 188 0 200L0 0Z" fill="#005dff"></path></g></svg>